<?xml version="1.0" encoding="UTF-8"?>
<svg version="1.1" xmlns="http://www.w3.org/2000/svg" width="180" height="180">
<path d="M0 0 C59.4 0 118.8 0 180 0 C180 59.4 180 118.8 180 180 C120.6 180 61.2 180 0 180 C0 120.6 0 61.2 0 0 Z " fill="#F6F5F1" transform="translate(0,0)"/>
<path d="M0 0 C0 1.32 0 2.64 0 4 C-0.64972275 4.60413223 -1.2994455 5.20826447 -1.96885681 5.83070374 C-4.75992383 8.81161187 -4.49884929 10.67101589 -4.49829102 14.70874023 C-4.50380981 15.37428925 -4.50932861 16.03983826 -4.51501465 16.72555542 C-4.52432005 18.16654451 -4.52445177 19.60761584 -4.51642036 21.04861259 C-4.50377853 23.3316585 -4.51508933 25.61349743 -4.53245544 27.89649963 C-4.55915609 31.92073685 -4.56475127 35.94467792 -4.56335449 39.96899414 C-4.56112612 46.40643599 -4.57529033 52.84351086 -4.61894035 59.2808094 C-4.62876391 61.52606182 -4.62006904 63.7707356 -4.61024475 66.01597595 C-4.61639089 67.39794287 -4.62330326 68.77990666 -4.63110352 70.16186523 C-4.63014175 71.36447495 -4.62917999 72.56708466 -4.62818909 73.80613708 C-5.21026324 78.80616529 -7.23216473 81.26629074 -10.8125 84.6875 C-17.34624397 89.42766719 -24.09559046 89.92993053 -32 89 C-35.07365786 87.19196596 -36.43019732 86.13960536 -38 83 C-38.42003544 79.30368809 -38.14835168 77.30288468 -36.5 73.9375 C-32.78110491 69.56779827 -28.43584919 66.81194973 -23 65 C-21.16859259 64.90622311 -19.33380013 64.87007043 -17.5 64.875 C-16.5409375 64.87242188 -15.581875 64.86984375 -14.59375 64.8671875 C-12 65 -12 65 -9 66 C-9 51.48 -9 36.96 -9 22 C-13.95 23.32 -18.9 24.64 -24 26 C-30.26116568 27.32273593 -36.52613879 28.58422017 -42.80859375 29.79882812 C-52.58389522 31.27328914 -52.58389522 31.27328914 -61 36 C-61.1022183 37.71725553 -61.13570351 39.43865144 -61.1418457 41.15893555 C-61.14888016 42.26065598 -61.15591461 43.3623764 -61.16316223 44.4974823 C-61.16732651 45.69843033 -61.17149078 46.89937836 -61.17578125 48.13671875 C-61.19898501 50.65821142 -61.22310257 53.17969582 -61.24804688 55.70117188 C-61.28314769 59.69309156 -61.31248976 63.6844579 -61.32592773 67.67651367 C-61.34140428 71.51779293 -61.38162412 75.35817611 -61.42578125 79.19921875 C-61.42387283 80.39004562 -61.42196442 81.5808725 -61.41999817 82.80778503 C-61.5318787 90.38918591 -62.28877268 94.08944845 -67.52734375 99.609375 C-72.57435735 103.69172395 -76.51249717 105.28767537 -83 105.3125 C-84.010625 105.32925781 -85.02125 105.34601563 -86.0625 105.36328125 C-89.44639709 104.94479398 -91.27465492 104.0203513 -94 102 C-96.40832094 98.38751859 -96.72360855 97.26125032 -96 93 C-92.4218953 87.35551264 -87.5511899 82.7286333 -81 81 C-70.77491961 80.11254019 -70.77491961 80.11254019 -67 82 C-67.00666183 81.17980881 -67.01332367 80.35961761 -67.02018738 79.51457214 C-67.08026878 71.78954867 -67.12595913 64.06463829 -67.15543652 56.33944225 C-67.17110056 52.36771373 -67.19235199 48.39617807 -67.22631836 44.42456055 C-67.25888596 40.59256911 -67.27684745 36.76076332 -67.28463173 32.92864418 C-67.29017996 31.46577341 -67.30101425 30.00291293 -67.31719017 28.54012108 C-67.33893079 26.49291304 -67.34196847 24.4464746 -67.34057617 22.39916992 C-67.34723801 21.23334885 -67.35389984 20.06752777 -67.36076355 18.86637878 C-67 16 -67 16 -65.75201416 14.17573547 C-63.69420171 12.79478596 -62.05298131 12.29637644 -59.62719727 11.7890625 C-58.74520157 11.59876465 -57.86320587 11.4084668 -56.95448303 11.21240234 C-56.00141769 11.01855957 -55.04835236 10.8247168 -54.06640625 10.625 C-53.07809311 10.41439941 -52.08977997 10.20379883 -51.07151794 9.98681641 C-47.90397515 9.31395029 -44.73347563 8.65647883 -41.5625 8 C-38.43081416 7.34176447 -35.29981711 6.6803506 -32.16903687 6.01782227 C-30.15434384 5.59182427 -28.13923053 5.16780879 -26.12368774 4.74584961 C-20.15725258 3.48947972 -14.2545754 2.12811262 -8.38256836 0.48046875 C-5.54842447 -0.09106472 -2.8834477 -0.07944966 0 0 Z " fill="#322026" transform="translate(127,55)"/>
<path d="M0 0 C0.67671753 -0.00287018 1.35343506 -0.00574036 2.05065918 -0.00869751 C3.47958209 -0.01073647 4.90853302 -0.00521819 6.33740234 0.00732422 C8.52374725 0.02338239 10.70824379 0.00747216 12.89453125 -0.01171875 C14.28385824 -0.00973629 15.67318409 -0.00589254 17.0625 0 C18.32642578 0.00338379 19.59035156 0.00676758 20.89257812 0.01025391 C24.03125 0.3984375 24.03125 0.3984375 25.96679688 1.61083984 C27.03125 3.3984375 27.03125 3.3984375 27.03125 8.3984375 C20.59625 8.8934375 20.59625 8.8934375 14.03125 9.3984375 C13.70125 14.6784375 13.37125 19.9584375 13.03125 25.3984375 C10.72125 25.7284375 8.41125 26.0584375 6.03125 26.3984375 C4.24076216 27.71055642 4.24076216 27.71055642 3.15625 29.4609375 C2.104375 30.915 2.104375 30.915 1.03125 32.3984375 C0.70125 32.3984375 0.37125 32.3984375 0.03125 32.3984375 C0.03125 29.7584375 0.03125 27.1184375 0.03125 24.3984375 C-1.98697917 24.49609375 -4.00520833 24.59375 -6.0234375 24.69140625 C-6.66539063 24.59472656 -7.30734375 24.49804688 -7.96875 24.3984375 C-10.68257083 20.32770625 -10.30002641 17.17515638 -10.28125 12.3984375 C-10.29736328 11.57859375 -10.31347656 10.75875 -10.33007812 9.9140625 C-10.33072266 9.12515625 -10.33136719 8.33625 -10.33203125 7.5234375 C-10.33501221 6.80414062 -10.33799316 6.08484375 -10.34106445 5.34375 C-9.96875 3.3984375 -9.96875 3.3984375 -8.8815918 1.66552734 C-5.96639414 -0.2655353 -3.4652555 0.0092772 0 0 Z " fill="#301E25" transform="translate(77.96875,17.6015625)"/>
<path d="M0 0 C1.73431274 0.00616333 1.73431274 0.00616333 3.50366211 0.01245117 C4.75598633 0.01438477 6.00831055 0.01631836 7.29858398 0.01831055 C9.26988281 0.03667969 9.26988281 0.03667969 11.28100586 0.05541992 C12.59907227 0.05606445 13.91713867 0.05670898 15.27514648 0.05737305 C25.07841463 0.1028287 25.07841463 0.1028287 26.21850586 1.24291992 C26.31837561 4.0862704 26.35728467 6.89989155 26.34350586 9.74291992 C26.34930664 10.93981445 26.34930664 10.93981445 26.35522461 12.16088867 C26.34511353 18.11631225 26.34511353 18.11631225 25.21850586 19.24291992 C23.5324162 19.31497504 21.84349927 19.3267806 20.15600586 19.30541992 C19.2369043 19.29639648 18.31780273 19.28737305 17.37084961 19.27807617 C16.66057617 19.26647461 15.95030273 19.25487305 15.21850586 19.24291992 C15.21850586 20.89291992 15.21850586 22.54291992 15.21850586 24.24291992 C14.69385742 23.75823242 14.16920898 23.27354492 13.62866211 22.77416992 C9.74325009 20.30564235 5.71478559 20.77176296 1.21459961 20.64916992 C-1.78149414 20.24291992 -1.78149414 20.24291992 -3.66430664 19.18432617 C-5.40959939 16.15142234 -5.17433147 13.07708241 -5.09399414 9.68041992 C-5.0972168 8.9952832 -5.10043945 8.31014648 -5.10375977 7.60424805 C-5.02641142 0.43897826 -5.02641142 0.43897826 0 0 Z " fill="#311E25" transform="translate(97.781494140625,28.757080078125)"/>
</svg>
