<?xml version="1.0" encoding="UTF-8"?>
<svg version="1.1" xmlns="http://www.w3.org/2000/svg" width="180" height="180">
<path d="M0 0 C59.4 0 118.8 0 180 0 C180 59.4 180 118.8 180 180 C120.6 180 61.2 180 0 180 C0 120.6 0 61.2 0 0 Z " fill="#F6F5F1" transform="translate(0,0)"/>
<path d="M0 0 C8.58 0 17.16 0 26 0 C26 5.94 26 11.88 26 18 C22.04 18.495 22.04 18.495 18 19 C15.66721267 20.89107141 15.66721267 20.89107141 15.8125 24.0625 C15.66812207 26.88833136 15.66812207 26.88833136 17 28 C22.87646031 28.46331437 22.87646031 28.46331437 28 26 C28.510605 23.28995497 28.510605 23.28995497 28.51171875 20.1171875 C28.54716797 18.95058594 28.58261719 17.78398438 28.61914062 16.58203125 C28.64169922 15.35871094 28.66425781 14.13539062 28.6875 12.875 C28.72166016 11.64394531 28.75582031 10.41289063 28.79101562 9.14453125 C28.87371564 6.0964449 28.94279427 3.04865429 29 0 C33.28663998 -0.0995024 37.57265331 -0.1717631 41.86010742 -0.21972656 C43.31595584 -0.23973822 44.77172494 -0.26695677 46.22729492 -0.30175781 C61.34297779 -0.65388746 61.34297779 -0.65388746 67 4 C70.00618864 7.02600967 71.87086098 10.32354074 72.20141602 14.61474609 C72.16552368 15.93079834 72.16552368 15.93079834 72.12890625 17.2734375 C72.11029541 18.16208496 72.09168457 19.05073242 72.07250977 19.96630859 C72.03661743 20.97298584 72.03661743 20.97298584 72 22 C71.11739502 22.0093457 70.23479004 22.01869141 69.32543945 22.02832031 C66.03543328 22.07246114 62.74670926 22.13412676 59.45727539 22.20751953 C58.03649808 22.23566014 56.61556622 22.25690908 55.19458008 22.27099609 C53.14584641 22.29252394 51.098957 22.33921514 49.05078125 22.390625 C47.20480347 22.4220459 47.20480347 22.4220459 45.3215332 22.45410156 C41.44421749 23.0913436 39.77416788 24.27147773 37 27 C35.4725361 30.0549278 35.76008168 33.2763314 35.68359375 36.6328125 C35.66281265 37.38464813 35.64203156 38.13648376 35.62062073 38.91110229 C35.55517295 41.31564085 35.49626262 43.72028967 35.4375 46.125 C35.39431023 47.75391771 35.35069579 49.38282422 35.30664062 51.01171875 C35.19869615 55.00770106 35.09958802 59.00376564 35 63 C29.39 63 23.78 63 18 63 C17.34 64.32 16.68 65.64 16 67 C14.1443352 69.51948847 12.09502199 71.87187677 10.0625 74.25 C9.52431641 74.8996875 8.98613281 75.549375 8.43164062 76.21875 C7.90892578 76.83234375 7.38621094 77.4459375 6.84765625 78.078125 C6.37336182 78.63918945 5.89906738 79.20025391 5.41040039 79.77832031 C4 81 4 81 1 81 C1 75.06 1 69.12 1 63 C-2.2484375 63.12375 -2.2484375 63.12375 -5.5625 63.25 C-11.77894488 63.2311813 -15.23907037 63.03644034 -20 59 C-23.91288631 53.41772827 -24.59597688 49.28853918 -24.53125 42.55859375 C-24.5350769 41.67269058 -24.53890381 40.78678741 -24.54284668 39.8740387 C-24.54555578 38.0108221 -24.53826509 36.14756682 -24.52148438 34.28442383 C-24.500034 31.44200542 -24.52133249 28.60210688 -24.546875 25.75976562 C-24.54423204 23.94270279 -24.53910773 22.12564152 -24.53125 20.30859375 C-24.53934692 19.46469589 -24.54744385 18.62079803 -24.55578613 17.75132751 C-24.45079513 11.10808904 -22.29814192 7.64634524 -17.9375 2.625 C-13.32967954 0.07599293 -9.21135091 0.74885056 -4 1 C-4 6.28 -4 11.56 -4 17 C-6.31 17.66 -8.62 18.32 -11 19 C-13.08984231 20.08674994 -13.08984231 20.08674994 -14 22 C-13.76716851 25.14921909 -13.76716851 25.14921909 -13 28 C-11.56344146 28.08131463 -10.1255517 28.13933559 -8.6875 28.1875 C-7.88699219 28.22230469 -7.08648437 28.25710937 -6.26171875 28.29296875 C-3.98078613 28.17957455 -3.98078613 28.17957455 -2.390625 26.84179688 C-0.45906749 24.28356831 -0.56910227 22.4226295 -0.48828125 19.23828125 C-0.45516846 18.23063721 -0.42205566 17.22299316 -0.38793945 16.18481445 C-0.35059692 14.2680188 -0.35059692 14.2680188 -0.3125 12.3125 C-0.209375 8.249375 -0.10625 4.18625 0 0 Z " fill="#332027" transform="translate(44,47)"/>
<path d="M0 0 C1.12148437 0.00322266 2.24296875 0.00644531 3.3984375 0.00976562 C4.5740625 0.01814453 5.7496875 0.02652344 6.9609375 0.03515625 C8.14429687 0.03966797 9.32765625 0.04417969 10.546875 0.04882812 C13.47658389 0.06064147 16.40626691 0.07857735 19.3359375 0.09765625 C19.3359375 5.70765625 19.3359375 11.31765625 19.3359375 17.09765625 C17.0259375 17.42765625 14.7159375 17.75765625 12.3359375 18.09765625 C10.31115287 19.20415294 10.31115287 19.20415294 9.3359375 21.09765625 C8.91914453 23.63996472 8.91914453 23.63996472 9.3359375 26.09765625 C11.20640576 28.39691923 11.20640576 28.39691923 14.2109375 28.34765625 C17.21758379 28.10712455 18.85423304 27.75212589 21.3359375 26.09765625 C22.62199411 23.52554303 22.54637691 21.52858659 22.65234375 18.65234375 C22.69045166 17.68280762 22.72855957 16.71327148 22.76782227 15.71435547 C22.81092529 14.47959473 22.85402832 13.24483398 22.8984375 11.97265625 C23.0428125 8.05390625 23.1871875 4.13515625 23.3359375 0.09765625 C31.5859375 0.09765625 39.8359375 0.09765625 48.3359375 0.09765625 C48.3359375 5.70765625 48.3359375 11.31765625 48.3359375 17.09765625 C45.6959375 17.75765625 43.0559375 18.41765625 40.3359375 19.09765625 C38.0867467 20.92468852 38.0867467 20.92468852 38.0859375 23.59765625 C38.0867467 26.27062398 38.0867467 26.27062398 40.3359375 28.09765625 C42.48587227 28.23436083 42.48587227 28.23436083 44.8359375 27.91015625 C45.63 27.83410156 46.4240625 27.75804688 47.2421875 27.6796875 C49.71400162 27.23807156 49.71400162 27.23807156 51.3359375 24.09765625 C51.70343139 21.48476131 51.70343139 21.48476131 51.75 18.5546875 C51.78867188 17.48154297 51.82734375 16.40839844 51.8671875 15.30273438 C51.898125 14.18318359 51.9290625 13.06363281 51.9609375 11.91015625 C51.99960938 10.77900391 52.03828125 9.64785156 52.078125 8.48242188 C52.17246283 5.68766375 52.25805402 2.89291347 52.3359375 0.09765625 C57.69171767 -0.11926781 60.08936219 0.71969862 64.3359375 4.09765625 C66.82500113 7.83125169 66.64192956 10.76590638 66.63671875 15.08984375 C66.64100388 15.87279816 66.645289 16.65575256 66.64970398 17.46243286 C66.65544456 19.11833734 66.65594953 20.77426704 66.65161133 22.43017578 C66.64845767 24.95649595 66.67189055 27.48163765 66.69726562 30.0078125 C66.69953937 31.61848811 66.70024176 33.22916686 66.69921875 34.83984375 C66.7084285 35.59208221 66.71763824 36.34432068 66.72712708 37.11935425 C66.68753545 41.63664016 66.0957087 44.49282581 63.3359375 48.09765625 C58.80110824 52.09489581 53.73131598 51.44247587 48.0234375 51.28515625 C46.62641602 51.26485352 46.62641602 51.26485352 45.20117188 51.24414062 C42.91251038 51.20893045 40.62414821 51.15512759 38.3359375 51.09765625 C38.3359375 55.71765625 38.3359375 60.33765625 38.3359375 65.09765625 C37.6759375 65.09765625 37.0159375 65.09765625 36.3359375 65.09765625 C34.75060048 63.38432871 33.24052535 61.60076578 31.7734375 59.78515625 C30.96777344 58.79902344 30.16210938 57.81289062 29.33203125 56.796875 C27.3359375 54.09765625 27.3359375 54.09765625 26.3359375 51.09765625 C25.3979834 51.12384033 24.4600293 51.15002441 23.49365234 51.17700195 C19.9934945 51.2625248 16.49445608 51.32504717 12.99365234 51.37231445 C11.48240576 51.3973672 9.97127926 51.43142002 8.46044922 51.47485352 C6.28062249 51.53592315 4.10240488 51.56395541 1.921875 51.5859375 C-0.04193115 51.62521362 -0.04193115 51.62521362 -2.04541016 51.6652832 C-6.79914351 50.91960583 -8.33629506 49.51362428 -11.6640625 46.09765625 C-13.57854204 40.35421764 -12.97079213 33.84529341 -13.01416016 27.82006836 C-13.03071034 26.13535743 -13.05798844 24.45071645 -13.09619141 22.76635742 C-13.15115227 20.32824561 -13.1728608 17.89177405 -13.1875 15.453125 C-13.21016937 14.70604782 -13.23283875 13.95897064 -13.25619507 13.18925476 C-13.24027616 9.22013166 -12.72270402 6.68513118 -10.25634766 3.63793945 C-6.60030382 0.05523686 -4.9966219 -0.02523546 0 0 Z " fill="#2F1D23" transform="translate(97.6640625,73.90234375)"/>
</svg>
